<?xml version="1.0" encoding="iso-8859-1"?>
<!-- Generator: Adobe Illustrator 20.1.0, SVG Export Plug-In . SVG Version: 6.00 Build 0)  -->
<svg version="1.1"  xmlns="http://www.w3.org/2000/svg" xmlns:xlink="http://www.w3.org/1999/xlink" x="0px" y="0px"
	 viewBox="0 0 48 48" style="enable-background:new 0 0 48 48;" xml:space="preserve">
<rect x="6" y="7" transform="matrix(-1 -4.489399e-11 4.489399e-11 -1 48 48)" style="fill:#EE8C57;" width="36" height="34"/>
<rect x="6" y="13" style="fill:#E96821;" width="36" height="1"/>
<path style="fill:#F2A880;" d="M39,41H9v-8c0-8.284,6.716-15,15-15h0c8.284,0,15,6.716,15,15V41z"/>
<path style="fill:#424242;" d="M36,41H12v-8c0-6.627,5.373-12,12-12h0c6.627,0,12,5.373,12,12V41z"/>
<rect x="4" y="9" transform="matrix(-1 -4.490642e-11 4.490642e-11 -1 48 22)" style="fill:#F2A880;" width="40" height="4"/>
<path style="fill:#FF5722;" d="M19,38c0,0-2-0.892-2-2.892C17,33.156,19,31,19,31s0.784,2.546,2,2c1.669-0.749-1.252-4.13,3-7
	c-0.611,3.244,2.54,2.294,3,7c1.158-1.74-0.058-2.318,2-4c-0.383,2.27,2.024,2.691,2,6c-0.014,1.921-2,3-2,3H19z"/>
<path style="fill:#FFE082;" d="M21.143,39c0,0-1.1-0.702-1.42-1.799c-0.35-1.198,0.42-2.201,0.42-2.201
	c0.737,1.261,4.75,1.261,4.714,4H21.143z"/>
<path style="fill:#FFE082;" d="M27.346,39c0,0,1.1-0.702,1.42-1.799c0.35-1.198-0.42-2.201-0.42-2.201
	c-0.737,1.261-3.75,1.261-3.714,4H27.346z"/>
<path style="fill:#FFE082;" d="M23.48,39c0,0-0.809,0.501-0.999-1.119c-0.24-2.039,1.359-2.478,0.662-5.881
	c3.295,2.603,3.855,5.041,2.714,7H23.48z"/>
<path style="fill:#8D6E63;" d="M31.5,40h-15c-0.276,0-0.5-0.224-0.5-0.5v-2c0-0.276,0.224-0.5,0.5-0.5h15c0.276,0,0.5,0.224,0.5,0.5
	v2C32,39.776,31.776,40,31.5,40z"/>
<path style="fill:#DD2C00;" d="M33,14c0,0-3.453,3.62-9,1v-3c3.767,3.517,9,1,9,1V14z"/>
<path style="fill:#DD2C00;" d="M42,14c0,0-2.789,2.479-8-0.028v-1.362C37.634,14.319,42,13,42,13V14z"/>
<circle style="fill:#FFC107;" cx="33.5" cy="12.5" r="1.5"/>
<path style="fill:#DD2C00;" d="M15,14c0,0,3.453,3.62,9,1v-3c-3.767,3.517-9,1-9,1V14z"/>
<path style="fill:#DD2C00;" d="M6,14c0,0,2.789,2.479,8-0.028v-1.362C10.366,14.319,6,13,6,13V14z"/>
<circle style="fill:#FFC107;" cx="14.5" cy="12.5" r="1.5"/>
<circle style="fill:#FFC107;" cx="24" cy="13" r="2"/>
</svg>
